<?xml version="1.0" standalone="no"?><!DOCTYPE svg PUBLIC "-//W3C//DTD SVG 1.1//EN" "http://www.w3.org/Graphics/SVG/1.1/DTD/svg11.dtd"><svg t="1741230855258" class="icon" viewBox="0 0 2561 1024" version="1.1" xmlns="http://www.w3.org/2000/svg" p-id="9561" xmlns:xlink="http://www.w3.org/1999/xlink" width="500.1953125" height="200"><path d="M1523.050374 0h4.080383v1.596672h-4.080383zM1545.403777 0h1.596672v1.596672h-1.596672zM1549.48416 0h1.596672v1.596672h-1.596672z" fill="#EA5517" p-id="9562"></path><path d="M1918.67013 130.57226h53.222389a8.160766 8.160766 0 0 0 7.983358-7.983358V92.784364h385.152686v29.804538a7.628542 7.628542 0 0 0 7.983358 7.983358h53.222389a5.144831 5.144831 0 0 0 5.677055-5.677055V79.123951A47.367926 47.367926 0 0 0 2387.02715 35.481592h-174.569435V9.58003c0-2.483711-2.306304-5.677055-3.902975-5.677055h-70.963185c-2.483711 0-4.080383 3.193343-4.080383 5.677055V35.481592h-174.924251a46.480886 46.480886 0 0 0-45.593846 43.997175V124.185574a5.144831 5.144831 0 0 0 5.677055 6.386686zM1154.751444 269.837511h-59.254259v21.643771h-53.754613v-45.593846h97.042156v-49.851638h-97.042156V162.505693h113.008872V111.234792H851.206421v51.270901h112.831464v33.530105h-99.171051v49.851638h99.171051v45.593846h-112.831464v55.351284h303.545023v-76.995055z" fill="#EA5517" p-id="9563"></path><path d="M785.565475 441.923234h434.826915a49.851637 49.851637 0 0 0 49.67423-47.190518V67.237618A47.190518 47.190518 0 0 0 1224.117958 20.0471H779.178788a45.061622 45.061622 0 0 0-43.287543 45.593846v333.172153c12.063741 23.950075 18.450428 38.32012 49.67423 43.110135z m28.030458-364.218547h377.169328v301.593536H813.595933zM660.670269 323.414715V107.331817a69.011697 69.011697 0 0 0-43.997174-41.690871H434.120302V9.58003c0-1.596672-1.77408-5.677055-8.160767-5.677055-24.659707 0-48.78719-1.596672-73.624304 0-4.080383 0-7.983358 2.483711-7.983358 5.677055V65.640946H161.79908a45.593846 45.593846 0 0 0-43.287543 41.690871v217.67957A68.656881 68.656881 0 0 0 159.670184 365.105586h184.681689v84.801006c0 4.080383 4.790015 5.677055 7.983358 6.564095H425.782127a7.983358 7.983358 0 0 0 8.160767-6.564095v-84.801006h185.036504a65.818354 65.818354 0 0 0 41.690871-41.690871z m-316.318396-23.950075H271.4372l-73.624304 2.128896V128.798181h73.624304l72.914673 0.887039z m232.227022 0h-141.926369V130.57226h141.926369zM1632.156271 449.906592v-84.801006h214.663634c2.306304 0 7.273726-2.483711 7.273727-6.386686v-55.173877c0-3.370751-4.967423-5.677055-9.757438-5.677054H1632.156271V91.187693h198.696918c3.193343 0 5.499647-2.306304 5.499646-6.386687V33.530105c0-2.306304-2.306304-5.499647-7.983358-5.499647H1353.270954c-8.870398 0-9.58003 3.902975-9.58003 9.58003v43.287543c0 9.58003 14.370045 7.983358 11.886334 7.983358h193.906902V301.593536H1331.627183a6.386687 6.386687 0 0 0-6.386687 6.386686V354.815925a9.757438 9.757438 0 0 0 7.983358 10.289661h212.889555v84.801006a7.096318 7.096318 0 0 0 8.160766 6.564095h69.543922a8.338174 8.338174 0 0 0 8.338174-6.564095z" fill="#EA5517" p-id="9564"></path><path d="M1732.036954 121.701862a16.144125 16.144125 0 0 0-12.773374 9.58003l-63.334642 127.378917c-2.483711 5.499647 0 9.58003 4.080383 9.58003h72.027633a16.49894 16.49894 0 0 0 13.483005-9.58003L1809.564233 131.281892c2.483711-5.677055 0.88704-9.58003-3.902975-9.58003zM1446.055318 268.240839h72.205041c4.790015 0 6.386687-4.080383 3.902975-9.58003L1459.893139 131.281892a16.676348 16.676348 0 0 0-13.837821-9.58003h-71.850224c-4.967423 0-6.564095 3.902975-4.080383 9.58003l63.157234 127.378917a17.740796 17.740796 0 0 0 12.773373 9.58003zM1905.719349 233.823694h88.703981c0 44.884214 21.643771 97.574379 99.348459 124.185574l-3.193344 2.483711a335.833273 335.833273 0 0 1-61.737971 15.966717c-36.723448 2.306304-72.737265 0-109.63812 1.419264-3.902975 0-5.499647 4.967423-5.499647 8.160766v47.190518a7.096318 7.096318 0 0 0 7.983358 7.983358h103.251434a346.832566 346.832566 0 0 0 147.248609-42.400503 354.815925 354.815925 0 0 0 148.313056 42.400503h103.251434a7.096318 7.096318 0 0 0 7.983359-7.983358V386.749358c0-3.193343-1.596672-8.160766-6.386687-8.160767-35.481592 0-72.914672 0.88704-108.928489-1.419263a343.284407 343.284407 0 0 1-61.737971-15.966717l-3.902975-2.483711c78.414319-27.320826 99.348459-80.010991 99.348459-124.185574h89.591021a1.951488 1.951488 0 0 0 1.596672-1.596672V174.569435a4.435199 4.435199 0 0 0-4.080383-4.080383h-87.10731V130.57226a6.031871 6.031871 0 0 0-5.677055-5.677055h-68.124657c-3.193343 0-5.677055 4.790015-5.677055 7.983359v37.610488h-196.035798V132.878564c0-3.193343-2.306304-7.983358-6.209279-7.983359h-67.237618a6.918911 6.918911 0 0 0-6.564094 5.677055v39.916792h-87.284718a5.144831 5.144831 0 0 0-3.902975 4.080383v57.657588s0.709632 1.596672 2.306304 1.596671z m266.111943 0H2270.824935l-2.306304 29.62713c-7.983358 33.707513-68.834289 59.963891-95.268075 59.963891-26.433786 0-86.397678-26.256378-95.268076-59.963891l-2.483712-29.62713zM2558.403242 610.815614l-6.386687-2.306303h-67.237618l-4.080383 2.306303-1.596671 1.77408-2.306304 2.306303-1.596672 275.514566-250.67745-279.594949-5.677055-2.306303H2146.639361l-4.080383 2.306303-1.419263 4.080383v394.732716l1.419263 4.080383 4.080383 1.596672h69.72133l3.902975-1.596672 2.483711-2.483711 1.596672-5.499647 2.306303-273.917894c21.643771 44.884214 179.35945 212.889555 244.290764 277.820869 4.080383 2.483711 7.096318 6.386687 11.886334 5.677055h70.963185c4.080383 0 5.677055-2.483711 5.677055-7.983358v-390.297517zM534.888024 609.218942H461.26372a8.870398 8.870398 0 0 0-8.69299 8.870399v386.749357a8.870398 8.870398 0 0 0 8.69299 9.58003h72.914672a9.047806 9.047806 0 0 0 8.870398-9.58003v-386.749357a9.047806 9.047806 0 0 0-8.160766-8.870399zM1032.872174 608.509311h-67.237617l-3.902976 2.306303-2.483711 1.77408-1.596672 2.306303-2.306303 275.514566-249.790411-279.594949-5.677055-2.306303h-72.027633l-4.080383 2.306303-1.596671 4.080383v394.732716l1.596671 4.080383 4.080383 1.596672h69.543922l4.080383-1.596672 2.483711-2.483711 1.596672-5.499647 2.306303-273.917894c21.643771 44.884214 179.35945 212.889555 244.113356 277.820869 4.080383 2.483711 7.273726 6.386687 11.35411 5.677055h72.027633c4.080383 0 5.677055-2.483711 5.677055-7.983358v-390.297517l-1.596672-5.677055zM271.4372 606.912639H5.680073a5.499647 5.499647 0 0 0-5.677055 5.677055v397.039019c0 2.483711 2.483711 4.080383 5.677055 4.080383H83.38476c3.902975 0 7.096318-2.483711 7.983359-7.983358v-115.315175h195.148758c62.447603 0 113.008872-40.803831 113.008872-100.945131v-70.963185a124.185574 124.185574 0 0 0-128.088549-111.589608zM301.596554 809.512532c0 4.790015 0 8.160766-3.193343 8.160766H87.819959v-138.378211h207.744724c5.499647 0 5.499647 3.015935 5.499647 7.805951zM1900.219702 608.509311H1827.305029a13.305597 13.305597 0 0 0-7.983358 4.790015L1622.221425 1000.935723c-3.902975 11.886333-2.306304 21.466363 5.677055 22.353403h67.237617a20.224508 20.224508 0 0 0 15.966717-8.870398L1862.786622 711.760745l154.522335 307.625406a9.934846 9.934846 0 0 0 7.983358 3.902975h73.624304c4.080383 0 8.870398-3.193343 7.983359-6.386686l-198.696918-403.603114a10.289662 10.289662 0 0 0-7.983358-4.790015zM1432.572313 741.387874a8.870398 8.870398 0 0 0 9.58003 7.983359h70.963185a10.289662 10.289662 0 0 0 10.46707-9.402622c0-77.704687-35.481592-140.329698-130.57226-137.136355h-159.134942c-67.237618 0-130.394852 39.384568-131.281893 107.331817v202.777301c3.193343 70.963185 68.834289 109.460713 127.378917 108.751081h166.586077c79.301359 0 124.185574-50.383861 126.491877-116.911847v-117.621479H1305.193396v59.963891a6.918911 6.918911 0 0 0 4.080383 7.983358h124.185574c0 27.320826-1.596672 53.222389-2.483711 80.898031 0 2.483711 0 3.902975-3.193344 3.902975-78.414319 0-152.925663 0-230.630351-1.419264-1.596672 0-2.306304-2.483711-2.306303-4.080383V690.116973c0-1.596672 0-3.902975 2.306303-3.902975l233.823695-1.596672v3.902976z" fill="#EA5517" p-id="9565"></path><path d="M1812.934984 900.877632h97.57438a12.595965 12.595965 0 0 1 12.950781 12.063742V1011.225385a12.773373 12.773373 0 0 1-12.950781 12.773373h-97.57438a12.595965 12.595965 0 0 1-12.063741-12.773373v-97.574379a12.241149 12.241149 0 0 1 12.063741-12.773374z" fill="#009944" p-id="9566"></path></svg>