<?xml version="1.0" standalone="no"?><!DOCTYPE svg PUBLIC "-//W3C//DTD SVG 1.1//EN" "http://www.w3.org/Graphics/SVG/1.1/DTD/svg11.dtd"><svg t="1741230822997" class="icon" viewBox="0 0 7953 1024" version="1.1" xmlns="http://www.w3.org/2000/svg" p-id="7564" xmlns:xlink="http://www.w3.org/1999/xlink" width="1553.3203125" height="200"><path d="M883.925 531.32c9.66-19.32 24.15-38.64 43.471-57.962 19.321-14.49 33.812-28.98 57.962-43.471 19.321-9.66 43.472-19.321 67.623-28.981 24.151-4.83 48.302-9.66 72.453-9.66 111.094 0 169.057 43.471 178.717 135.245H883.925z m270.49-289.81c-130.415 0-246.34 33.81-342.943 106.264-82.114 62.792-140.076 140.075-173.887 231.849-4.83 14.49-9.66 33.811-14.49 53.132-28.982 115.924-9.661 212.528 53.131 284.98S840.453 1024 975.698 1024c231.85 0 405.736-144.906 425.057-159.396l-96.604-28.981c-24.151 4.83-149.736 43.471-280.151 33.811-159.396-14.49-198.038-135.245-188.377-198.038h647.245l9.66-38.641c4.83-19.321 9.66-33.812 9.66-53.132h-4.83 4.83c14.491-101.434-4.83-178.717-53.131-236.68-62.793-67.622-159.397-101.434-294.642-101.434zM3579.17 531.32c9.66-19.32 24.15-38.64 43.472-57.962 19.32-14.49 33.81-28.98 57.962-43.471 19.32-9.66 43.471-19.321 67.622-28.981 24.151-4.83 48.302-9.66 72.453-9.66 111.095 0 169.057 43.471 178.717 135.245H3579.17z m275.32-289.81c-130.415 0-246.34 33.81-342.943 106.264-82.113 62.792-140.075 140.075-173.887 231.849-4.83 14.49-9.66 33.811-14.49 53.132-28.981 115.924-9.66 212.528 53.132 284.98S3540.528 1024 3675.774 1024c231.849 0 405.735-144.906 425.056-159.396l-101.434-24.151c-24.15 4.83-149.736 43.472-280.15 33.811-159.397-14.49-198.038-135.245-188.378-198.038h647.245l9.66-38.641c4.83-19.32 9.661-33.811 9.661-53.132h-4.83 4.83c14.49-96.604-4.83-173.887-57.962-231.85-53.132-77.282-149.736-111.094-284.981-111.094zM5414.643 91.773L5371.17 280.15h-173.887l-33.811 140.075h632.754L5414.642 91.774z m-115.925 487.849l-106.264 439.547h207.698l106.264-439.547 28.981-125.585h-207.698l-28.981 125.585zM4854.34 260.83c-91.774 0-178.717 28.981-270.49 86.944l-193.208-67.623-72.453 294.641-106.264 444.378h207.698l86.943-357.434c9.66-33.811 14.49-57.962 24.151-86.944 19.32-48.301 38.641-82.113 62.792-106.264 38.642-38.641 91.774-57.962 159.397-57.962 62.792 0 106.264 14.49 120.754 43.472 14.49 24.15 19.321 62.792 4.83 120.754 0 9.66-4.83 19.321-4.83 28.982l-91.773 415.396h207.698l106.264-439.547 4.83-9.66c24.151-106.265 19.321-178.718-19.32-227.02-48.302-53.132-120.755-82.113-227.02-82.113zM3072 241.51c-140.075 0-265.66 38.64-376.755 115.924-96.603 62.792-159.396 140.075-193.207 222.189h169.056-169.056c-4.83 19.32-14.49 33.811-19.321 53.132-28.981 111.094 0 202.868 72.453 275.32 77.283 72.453 183.547 111.095 323.622 111.095 86.944 0 173.887-19.32 265.66-53.132l53.133-227.02c-62.793 48.303-115.925 82.114-154.566 101.435-43.472 19.32-86.944 24.15-140.076 24.15-77.283 0-135.245-24.15-178.717-67.622-38.641-43.472-53.132-101.434-33.81-169.056 4.83-19.321 9.66-33.812 19.32-53.133 19.32-43.471 53.132-82.113 101.434-115.924 67.622-43.472 140.075-67.623 217.358-67.623 48.302 0 91.774 9.66 125.585 28.981 33.812 19.321 67.623 48.302 106.264 96.604l53.132-227.019C3241.057 256 3163.774 241.51 3072 241.51z m-898.415 19.32c-91.774 0-178.717 28.981-270.49 86.944l-193.208-67.623-67.623 299.472-111.094 439.547h207.698l86.943-357.434c9.66-33.811 14.49-57.962 24.151-86.944 19.321-48.301 38.642-82.113 62.793-106.264 38.641-38.641 91.773-57.962 159.396-57.962 62.792 0 106.264 14.49 120.755 43.472 14.49 24.15 19.32 62.792 4.83 120.754 0 9.66-4.83 19.321-4.83 28.982l-91.774 415.396h207.698l106.264-439.547 4.83-9.66c24.151-106.265 19.321-178.718-19.32-227.02-48.302-53.132-120.755-82.113-227.02-82.113z m-1265.51-256H33.811L0 149.736h328.453L227.019 579.623 120.755 1019.17h217.358l106.264-439.547 101.434-429.887h328.453L908.075 4.83zM7651.02 405.736h-96.604l43.472-217.359h96.604l-43.472 217.359z m115.924 318.792c-19.32 67.623-33.81 91.774-38.641 67.623-9.66-43.472-4.83-120.755 19.32-227.019v-4.83l101.435-487.85h-449.208l-24.15 115.925h91.773L7424 405.736h-115.925l-24.15 115.924h115.924l-4.83 33.812-86.944 420.226h130.416l86.943-420.226 9.66-33.812h91.774l-9.66 33.812-9.66 53.132c-28.982 140.075-19.322 246.34 33.81 323.622 28.982 43.472 62.793 62.793 106.265 53.132 43.471 0 86.943-72.452 130.415-217.358-43.472-14.49-77.283-28.981-111.095-43.472z m-458.868-91.773l-24.15-53.132-24.151 19.32c-38.642 38.642-72.453 62.793-86.944 77.283l24.151-120.754 48.302-236.68h-241.51l-24.15 120.755h115.924l-24.15 120.755-38.642 198.038c-4.83 24.15-24.151 53.132-62.793 82.113l-14.49 14.49c14.49 43.472 33.811 82.114 67.622 120.755 4.83 0 14.49-9.66 38.642-33.811 33.811-38.642 125.585-125.585 270.49-256 0-4.83-9.66-19.321-24.15-53.132z m-734.188-159.397l14.49-19.32 14.49-19.321h38.642c4.83 14.49 9.66 28.981 19.321 43.472h-86.943z m33.811 193.208h-101.434c9.66-28.981 14.49-48.302 24.151-67.623-4.83-4.83-9.66-4.83-9.66-4.83h-62.793l24.151-24.15h144.906l-19.32 96.603z m-367.094-352.604h-62.793l28.981-144.905h62.793l-28.981 144.905z m-48.302 236.68h-57.962l28.98-135.246h62.793l-33.811 135.246z m589.283-120.755h169.057l19.32-101.434h-299.471c9.66-14.49 14.49-24.151 19.32-43.472h246.34l19.32-101.434h-91.773c38.642-38.641 72.453-72.453 106.264-96.604l-106.264-67.622c-33.811 43.471-67.623 86.943-111.094 130.415l62.792 38.641h-86.943l14.49-43.471 14.491-43.472c14.49-33.811 24.15-62.792 33.811-77.283 0-4.83-4.83-9.66-19.32-14.49-24.151-4.83-67.623-4.83-125.585-9.661-19.321 72.453-33.812 130.415-48.302 183.547h-77.283l24.15-19.32c43.472-28.982 67.623-43.472 67.623-48.302-24.15-53.133-43.471-91.774-62.792-111.095 0-4.83-33.811 14.49-96.604 62.793l-24.15 14.49s4.83 4.83 9.66 14.49c24.15 28.982 43.471 62.793 57.962 86.944h-62.793l-19.32 101.434h144.905l-9.66 19.32-9.66 19.322h-159.397l-19.32 101.434h111.094c-43.472 53.132-86.944 96.603-144.906 130.415-9.66 4.83-14.49 9.66-24.15 14.49l4.83-14.49 101.433-497.51h-284.98l-101.435 497.51-4.83 28.98c-24.15 120.756-62.792 222.19-120.755 313.963 28.982 28.981 53.132 57.962 77.283 86.943 57.963-86.943 106.265-202.867 140.076-338.113h62.792l-43.471 178.717c-4.83 24.151-24.151 33.812-67.623 28.981 9.66 43.472 9.66 86.944 9.66 130.415 101.434 0 154.566-24.15 154.566-72.452l62.793-299.472c24.15 24.15 38.641 48.302 48.302 67.623 14.49-9.66 33.811-19.321 53.132-38.642L6356.528 768h342.944l-4.83 33.811c-14.491 67.623-33.812 101.434-57.963 96.604L6656 801.811h-367.094l-19.321 101.434h294.641c19.321 38.642 24.151 77.283 19.321 115.925 96.604-4.83 154.566-19.32 173.887-48.302 4.83-9.66 14.49-24.151 19.32-48.302 14.491-48.302 33.812-120.755 57.963-212.528l14.49-53.132h-125.584l14.49-82.114c38.642 33.812 72.453 57.963 91.774 67.623 28.98-33.811 53.132-67.623 77.283-91.773 9.66-9.66 19.32-24.151 33.811-33.812-67.623-9.66-125.585-43.472-159.396-86.943z m555.472-222.189c-33.812-125.585-53.132-188.377-53.132-193.207-33.812 9.66-82.114 28.98-149.736 62.792 19.32 62.792 38.641 125.585 48.302 193.208 24.15-14.491 72.452-33.812 154.566-62.793z" fill="#0C52CE" p-id="7565"></path></svg>