<svg width="800" height="600" viewBox="0 0 800 600" xmlns="http://www.w3.org/2000/svg">
  <!-- 背景网格 -->
  <defs>
    <pattern id="grid" width="80" height="80" patternUnits="userSpaceOnUse">
      <path d="M 80 0 L 0 0 0 80" fill="none" stroke="#3498db" stroke-width="0.3" opacity="0.3" />
    </pattern>
  </defs>
  
  <rect width="100%" height="100%" fill="url(#grid)" />
  
  <!-- 神经网络节点 -->
  <g class="nodes">
    <!-- 输入层节点 -->
    <circle cx="100" cy="100" r="8" fill="#3498db" opacity="0.8" />
    <circle cx="100" cy="200" r="8" fill="#3498db" opacity="0.8" />
    <circle cx="100" cy="300" r="8" fill="#3498db" opacity="0.8" />
    <circle cx="100" cy="400" r="8" fill="#3498db" opacity="0.8" />
    <circle cx="100" cy="500" r="8" fill="#3498db" opacity="0.8" />
    
    <!-- 隐藏层1节点 -->
    <circle cx="300" cy="150" r="8" fill="#9b59b6" opacity="0.8" />
    <circle cx="300" cy="250" r="8" fill="#9b59b6" opacity="0.8" />
    <circle cx="300" cy="350" r="8" fill="#9b59b6" opacity="0.8" />
    <circle cx="300" cy="450" r="8" fill="#9b59b6" opacity="0.8" />
    
    <!-- 隐藏层2节点 -->
    <circle cx="500" cy="200" r="8" fill="#2ecc71" opacity="0.8" />
    <circle cx="500" cy="300" r="8" fill="#2ecc71" opacity="0.8" />
    <circle cx="500" cy="400" r="8" fill="#2ecc71" opacity="0.8" />
    
    <!-- 输出层节点 -->
    <circle cx="700" cy="250" r="8" fill="#e74c3c" opacity="0.8" />
    <circle cx="700" cy="350" r="8" fill="#e74c3c" opacity="0.8" />
  </g>
  
  <!-- 连接线 -->
  <g class="connections" stroke-width="1" stroke-opacity="0.3">
    <!-- 输入层到隐藏层1 -->
    <path d="M 108 100 L 292 150" stroke="#3498db" />
    <path d="M 108 100 L 292 250" stroke="#3498db" />
    <path d="M 108 100 L 292 350" stroke="#3498db" />
    <path d="M 108 100 L 292 450" stroke="#3498db" />
    
    <path d="M 108 200 L 292 150" stroke="#3498db" />
    <path d="M 108 200 L 292 250" stroke="#3498db" />
    <path d="M 108 200 L 292 350" stroke="#3498db" />
    <path d="M 108 200 L 292 450" stroke="#3498db" />
    
    <path d="M 108 300 L 292 150" stroke="#3498db" />
    <path d="M 108 300 L 292 250" stroke="#3498db" />
    <path d="M 108 300 L 292 350" stroke="#3498db" />
    <path d="M 108 300 L 292 450" stroke="#3498db" />
    
    <path d="M 108 400 L 292 150" stroke="#3498db" />
    <path d="M 108 400 L 292 250" stroke="#3498db" />
    <path d="M 108 400 L 292 350" stroke="#3498db" />
    <path d="M 108 400 L 292 450" stroke="#3498db" />
    
    <path d="M 108 500 L 292 150" stroke="#3498db" />
    <path d="M 108 500 L 292 250" stroke="#3498db" />
    <path d="M 108 500 L 292 350" stroke="#3498db" />
    <path d="M 108 500 L 292 450" stroke="#3498db" />
    
    <!-- 隐藏层1到隐藏层2 -->
    <path d="M 308 150 L 492 200" stroke="#9b59b6" />
    <path d="M 308 150 L 492 300" stroke="#9b59b6" />
    <path d="M 308 150 L 492 400" stroke="#9b59b6" />
    
    <path d="M 308 250 L 492 200" stroke="#9b59b6" />
    <path d="M 308 250 L 492 300" stroke="#9b59b6" />
    <path d="M 308 250 L 492 400" stroke="#9b59b6" />
    
    <path d="M 308 350 L 492 200" stroke="#9b59b6" />
    <path d="M 308 350 L 492 300" stroke="#9b59b6" />
    <path d="M 308 350 L 492 400" stroke="#9b59b6" />
    
    <path d="M 308 450 L 492 200" stroke="#9b59b6" />
    <path d="M 308 450 L 492 300" stroke="#9b59b6" />
    <path d="M 308 450 L 492 400" stroke="#9b59b6" />
    
    <!-- 隐藏层2到输出层 -->
    <path d="M 508 200 L 692 250" stroke="#2ecc71" />
    <path d="M 508 200 L 692 350" stroke="#2ecc71" />
    
    <path d="M 508 300 L 692 250" stroke="#2ecc71" />
    <path d="M 508 300 L 692 350" stroke="#2ecc71" />
    
    <path d="M 508 400 L 692 250" stroke="#2ecc71" />
    <path d="M 508 400 L 692 350" stroke="#2ecc71" />
  </g>
  
  <!-- 脉冲动画 -->
  <g class="pulses">
    <circle cx="100" cy="100" r="3" fill="#ffffff">
      <animate attributeName="opacity" values="0;1;0" dur="3s" repeatCount="indefinite" begin="0s" />
    </circle>
    <circle cx="300" cy="150" r="3" fill="#ffffff">
      <animate attributeName="opacity" values="0;1;0" dur="3s" repeatCount="indefinite" begin="0.5s" />
    </circle>
    <circle cx="500" cy="200" r="3" fill="#ffffff">
      <animate attributeName="opacity" values="0;1;0" dur="3s" repeatCount="indefinite" begin="1s" />
    </circle>
    <circle cx="700" cy="250" r="3" fill="#ffffff">
      <animate attributeName="opacity" values="0;1;0" dur="3s" repeatCount="indefinite" begin="1.5s" />
    </circle>
    
    <circle cx="100" cy="300" r="3" fill="#ffffff">
      <animate attributeName="opacity" values="0;1;0" dur="3.2s" repeatCount="indefinite" begin="1.8s" />
    </circle>
    <circle cx="300" cy="350" r="3" fill="#ffffff">
      <animate attributeName="opacity" values="0;1;0" dur="3.2s" repeatCount="indefinite" begin="2.3s" />
    </circle>
    <circle cx="500" cy="300" r="3" fill="#ffffff">
      <animate attributeName="opacity" values="0;1;0" dur="3.2s" repeatCount="indefinite" begin="2.8s" />
    </circle>
    <circle cx="700" cy="350" r="3" fill="#ffffff">
      <animate attributeName="opacity" values="0;1;0" dur="3.2s" repeatCount="indefinite" begin="3.3s" />
    </circle>
  </g>
</svg> 