<svg width="200" height="200" viewBox="0 0 200 200" xmlns="http://www.w3.org/2000/svg">
  <!-- 背景 -->
  <rect width="200" height="200" fill="#8B5CF6" />
  
  <!-- 装饰性几何图形 -->
  <polygon points="0,0 100,0 0,100" fill="#7C3AED" />
  <polygon points="200,200 100,200 200,100" fill="#6D28D9" />
  
  <!-- 抽象脸部 - 正方形风格 -->
  <rect x="65" y="65" width="70" height="70" rx="10" fill="#F97316" />
  
  <!-- 眼睛 -->
  <rect x="80" y="85" width="15" height="10" rx="5" fill="#27272A" />
  <rect x="105" y="85" width="15" height="10" rx="5" fill="#27272A" />
  
  <!-- 嘴 -->
  <rect x="85" y="110" width="30" height="5" rx="2" fill="#27272A" />
  
  <!-- 机械风格装饰 -->
  <line x1="50" y1="65" x2="65" y2="65" stroke="#C4B5FD" stroke-width="2" />
  <line x1="50" y1="75" x2="65" y2="75" stroke="#C4B5FD" stroke-width="2" />
  <line x1="50" y1="85" x2="65" y2="85" stroke="#C4B5FD" stroke-width="2" />
  
  <line x1="135" y1="65" x2="150" y2="65" stroke="#C4B5FD" stroke-width="2" />
  <line x1="135" y1="75" x2="150" y2="75" stroke="#C4B5FD" stroke-width="2" />
  <line x1="135" y1="85" x2="150" y2="85" stroke="#C4B5FD" stroke-width="2" />
  
  <!-- 电路风格线条 -->
  <path d="M30,130 H50 V150 H70 V130 H90" stroke="#DDD6FE" stroke-width="3" fill="none" />
  <path d="M110,130 H130 V150 H150 V130 H170" stroke="#DDD6FE" stroke-width="3" fill="none" />
  
  <!-- 点缀圆点 -->
  <circle cx="30" cy="130" r="3" fill="#DDD6FE" />
  <circle cx="50" cy="130" r="3" fill="#DDD6FE" />
  <circle cx="70" cy="150" r="3" fill="#DDD6FE" />
  <circle cx="90" cy="130" r="3" fill="#DDD6FE" />
  <circle cx="110" cy="130" r="3" fill="#DDD6FE" />
  <circle cx="130" cy="130" r="3" fill="#DDD6FE" />
  <circle cx="150" cy="150" r="3" fill="#DDD6FE" />
  <circle cx="170" cy="130" r="3" fill="#DDD6FE" />
</svg> 