<svg width="200" height="200" viewBox="0 0 200 200" xmlns="http://www.w3.org/2000/svg">
  <!-- 背景 -->
  <rect width="200" height="200" fill="#5D4EF5" />
  
  <!-- 几何图形背景元素 -->
  <circle cx="50" cy="50" r="80" fill="#7B61FF" />
  <circle cx="150" cy="150" r="80" fill="#3634A3" />
  
  <!-- 抽象脸部 -->
  <circle cx="100" cy="85" r="45" fill="#FFD166" />
  
  <!-- 眼睛 -->
  <ellipse cx="80" cy="75" rx="8" ry="12" fill="#1A1A2E" />
  <ellipse cx="120" cy="75" rx="8" ry="12" fill="#1A1A2E" />
  
  <!-- 微笑 -->
  <path d="M75,105 Q100,130 125,105" stroke="#1A1A2E" stroke-width="5" fill="none" />
  
  <!-- 特征纹理 -->
  <path d="M60,40 L75,60 L55,75" fill="#FF6B6B" />
  <path d="M140,40 L125,60 L145,75" fill="#FF6B6B" />
  
  <!-- 像素化效果 -->
  <g opacity="0.3">
    <rect x="20" y="140" width="20" height="20" fill="#FF9E6B" />
    <rect x="40" y="140" width="20" height="20" fill="#FF6B6B" />
    <rect x="60" y="140" width="20" height="20" fill="#FF9E6B" />
    <rect x="80" y="140" width="20" height="20" fill="#FF6B6B" />
    <rect x="100" y="140" width="20" height="20" fill="#FF9E6B" />
    <rect x="120" y="140" width="20" height="20" fill="#FF6B6B" />
    <rect x="140" y="140" width="20" height="20" fill="#FF9E6B" />
    <rect x="160" y="140" width="20" height="20" fill="#FF6B6B" />
  </g>
</svg> 