<svg width="200" height="200" viewBox="0 0 200 200" xmlns="http://www.w3.org/2000/svg">
  <!-- 背景 -->
  <rect width="200" height="200" fill="#34D399" />
  
  <!-- 几何图形元素 -->
  <circle cx="180" cy="30" r="60" fill="#10B981" />
  <circle cx="30" cy="170" r="60" fill="#059669" />
  
  <!-- 抽象脸部 -->
  <circle cx="100" cy="100" r="50" fill="#F59E0B" />
  
  <!-- 特征 -->
  <rect x="70" y="80" width="20" height="10" fill="#1A1A2E" />
  <rect x="110" y="80" width="20" height="10" fill="#1A1A2E" />
  <path d="M75,120 Q100,140 125,120" stroke="#1A1A2E" stroke-width="6" fill="none" />
  
  <!-- 装饰性头冠 -->
  <polygon points="75,50 100,20 125,50" stroke="#FBBF24" stroke-width="5" fill="none" />
  <polygon points="60,55 50,30 75,50" stroke="#FBBF24" stroke-width="3" fill="none" />
  <polygon points="140,55 150,30 125,50" stroke="#FBBF24" stroke-width="3" fill="none" />
  
  <!-- 像素化效果 -->
  <g opacity="0.2">
    <rect x="0" y="0" width="20" height="20" fill="#A7F3D0" />
    <rect x="20" y="0" width="20" height="20" fill="#6EE7B7" />
    <rect x="160" y="0" width="20" height="20" fill="#A7F3D0" />
    <rect x="180" y="0" width="20" height="20" fill="#6EE7B7" />
    <rect x="0" y="180" width="20" height="20" fill="#A7F3D0" />
    <rect x="20" y="180" width="20" height="20" fill="#6EE7B7" />
    <rect x="160" y="180" width="20" height="20" fill="#A7F3D0" />
    <rect x="180" y="180" width="20" height="20" fill="#6EE7B7" />
  </g>
</svg> 